Coordinates
version=1
nRows=9
nColumns=36
inDegrees=yes

Units are S.I. units (second, meters, Newtons, ...)
If the header above contains a line with 'inDegrees', this indicates whether rotational values are in degrees (yes) or radians (no).

endheader
time	pelvis_tilt	pelvis_list	pelvis_rotation	pelvis_tx	pelvis_ty	pelvis_tz	hip_flexion_r	hip_adduction_r	hip_rotation_r	knee_angle_r	knee_angle_r_beta	ankle_angle_r	subtalar_angle_r	mtp_angle_r	hip_flexion_l	hip_adduction_l	hip_rotation_l	knee_angle_l	knee_angle_l_beta	ankle_angle_l	subtalar_angle_l	mtp_angle_l	lumbar_extension	lumbar_bending	lumbar_rotation	arm_flex_r	arm_add_r	arm_rot_r	elbow_flex_r	pro_sup_r	arm_flex_l	arm_add_l	arm_rot_l	elbow_flex_l	pro_sup_l
      1.12000000	    -15.97122642	     -1.43240456	     -1.22125943	     -0.68704033	      1.25479400	     -0.58303228	     27.55594439	     -0.61517402	     -0.15994024	     47.47196854	      0.82854215	    -29.35401706	    -12.66639023	     -4.78440909	     23.93818783	     -4.31886339	     -3.45346433	     47.75499877	      0.83348196	    -24.50447710	    -10.19406197	     -4.78440909	     -0.05777268	      2.47798710	     -1.80003168	     58.42127828	    -51.77797580	     20.57868207	    103.32534963	     99.50804531	     62.28998369	    -60.23549297	     24.02490724	     98.03535685	     91.02206650
      1.13000000	    -15.89647049	     -1.42514819	     -1.20746415	     -0.67667656	      1.25870257	     -0.58288477	     28.12332841	     -0.66169030	     -0.27901913	     46.85686531	      0.81780658	    -29.62466913	    -12.52336213	     -4.87275667	     24.54268927	     -4.42957794	     -3.29647859	     46.96219292	      0.81964489	    -24.85065337	    -10.35239458	     -4.87275667	     -0.24291084	      2.38483614	     -1.77287406	     57.00884813	    -52.07188607	     19.30673605	    103.29809271	     99.61866373	     60.61724935	    -60.51473939	     22.87434259	     98.13939526	     91.12594448
      1.14000000	    -15.78778978	     -1.49767725	     -1.23348087	     -0.66651206	      1.26185542	     -0.58272676	     28.57314924	     -0.61945563	     -0.43924692	     45.86657701	      0.80052279	    -29.44272757	    -11.99979851	     -4.94289860	     24.99486941	     -4.62884581	     -3.11566934	     45.66545224	      0.79701250	    -25.01919022	    -10.31528386	     -4.94289860	     -0.50497314	      2.42299540	     -1.67979067	     55.59335772	    -52.08171026	     17.99031731	    102.93494261	     99.66133778	     58.66050252	    -60.31834460	     21.34873757	     97.93138332	     91.15088757
      1.15000000	    -15.63217914	     -1.65928364	     -1.21696745	     -0.65656557	      1.26415249	     -0.58269388	     28.88846890	     -0.44394037	     -0.56472134	     44.51543074	      0.77694083	    -28.99710415	    -11.57429084	     -4.96858959	     25.32178249	     -4.87999886	     -2.87806354	     44.00020951	      0.76794853	    -24.75555409	    -10.28445640	     -4.96858959	     -0.80984198	      2.58098736	     -1.59838704	     54.44174777	    -52.04093895	     17.38528744	    102.19855974	     99.61913759	     57.05257672	    -59.98159371	     20.70810775	     97.40258311	     91.10338012
      1.16000000	    -15.43190244	     -1.86730108	     -1.25728341	     -0.64667829	      1.26578444	     -0.58276901	     29.08858200	     -0.29157314	     -0.80016671	     42.82700665	      0.74747227	    -27.82435362	     -9.93439868	     -5.04630264	     25.55598796	     -5.25136368	     -2.88684881	     42.07103561	      0.73427809	    -24.38209154	    -10.09534258	     -5.04630264	     -1.37753794	      2.87121303	     -1.47444810	     52.81275127	    -51.69340957	     15.58895077	    101.86455857	     99.63428580	     54.04353302	    -58.92538951	     17.58521509	     97.18217419	     91.12089967
      1.17000000	    -15.19632919	     -2.15766492	     -1.28272532	     -0.63710381	      1.26649740	     -0.58294704	     29.19111874	     -0.04040571	     -0.95606733	     40.84175651	      0.71282312	    -26.88764446	     -8.38688965	     -5.44122022	     25.77213466	     -5.68847813	     -2.75340152	     39.97540246	      0.69770239	    -24.05684775	     -9.73002225	     -5.44122022	     -2.04180192	      3.36243351	     -2.50285525	     53.48142188	    -50.05881601	     16.65768574	    100.20683980	    100.22708347	     49.52443808	    -59.38612396	     13.37493802	     97.61638802	     91.99995836
      1.18000000	    -14.90606824	     -2.39586874	     -1.30784884	     -0.62766187	      1.26640467	     -0.58302660	     29.21093036	      0.16027757	     -1.09735523	     38.67790235	      0.67505674	    -26.56737440	     -7.35623420	     -5.49792465	     25.95966437	     -6.12722481	     -2.68915215	     37.82300111	      0.66013590	    -24.06567845	     -9.07459293	     -5.49792465	     -2.81501091	      3.61395674	     -2.34134110	     52.21554357	    -49.77177868	     15.67123912	     99.49560610	    100.23968720	     47.92881491	    -58.60906112	     12.56804109	     97.15142758	     91.99829291
      1.19000000	    -14.63252521	     -2.56768243	     -1.31819113	     -0.61841658	      1.26540586	     -0.58325167	     29.23960491	      0.27043788	     -1.17844557	     36.43452059	      0.63590235	    -26.37468889	     -6.32389697	     -5.59853502	     26.19302903	     -6.42937020	     -2.44215233	     35.65333807	      0.62226814	    -24.42389570	     -8.41393580	     -5.59853502	     -3.63170398	      3.83579614	     -2.38568578	     51.28000890	    -49.28946041	     15.11723758	     98.65093753	    100.43218015	     45.89070556	    -58.01423076	     11.29217912	     96.90680276	     92.15386748
      1.20000000	    -14.27700847	     -2.69670309	     -1.37955675	     -0.60927093	      1.26356870	     -0.58348082	     29.20096492	      0.34717523	     -1.16686281	     34.18293424	      0.59660475	    -26.66212857	     -5.73883439	     -5.89453162	     26.36786741	     -6.71602070	     -2.27545930	     33.53134439	      0.58523236	    -25.13840634	     -7.91395397	     -5.89453162	     -4.58052224	      4.07663876	     -2.89310767	     51.39674397	    -48.35226484	     15.98765321	     97.27627567	    101.07295891	     42.81829304	    -57.81641061	      8.86866307	     96.91654969	     93.02715493
